<?xml version="1.0" encoding="UTF-8" standalone="no"?>
<!DOCTYPE svg PUBLIC "-//W3C//DTD SVG 1.1//EN"
 "http://www.w3.org/Graphics/SVG/1.1/DTD/svg11.dtd">
<!-- Generated by graphviz version 2.26.3 (20100126.1600)
 -->
<!-- Title: G Pages: 1 -->
<svg width="1340pt" height="1388pt"
 viewBox="0.00 0.00 1340.00 1388.00" xmlns="http://www.w3.org/2000/svg" xmlns:xlink="http://www.w3.org/1999/xlink">
<g id="graph1" class="graph" transform="scale(1 1) rotate(0) translate(4 1384)">
<title>G</title>
<polygon fill="white" stroke="white" points="-4,5 -4,-1384 1337,-1384 1337,5 -4,5"/>
<g id="graph2" class="cluster"><title>cluster_FIT</title>
<polyline fill="none" stroke="gray" points="732,-314 1312,-314 "/>
<path fill="none" stroke="gray" d="M1312,-314C1318,-314 1324,-320 1324,-326"/>
<polyline fill="none" stroke="gray" points="1324,-326 1324,-1360 "/>
<path fill="none" stroke="gray" d="M1324,-1360C1324,-1366 1318,-1372 1312,-1372"/>
<polyline fill="none" stroke="gray" points="1312,-1372 732,-1372 "/>
<path fill="none" stroke="gray" d="M732,-1372C726,-1372 720,-1366 720,-1360"/>
<polyline fill="none" stroke="gray" points="720,-1360 720,-326 "/>
<path fill="none" stroke="gray" d="M720,-326C720,-320 726,-314 732,-314"/>
<text text-anchor="middle" x="1022" y="-1358.1" font-family="Times,serif" font-size="11.00" fill="gray">FIT</text>
</g>
<g id="graph3" class="cluster"><title>cluster_FIT\NetopeerBundle</title>
<polyline fill="none" stroke="gray" points="740,-322 1304,-322 "/>
<path fill="none" stroke="gray" d="M1304,-322C1310,-322 1316,-328 1316,-334"/>
<polyline fill="none" stroke="gray" points="1316,-334 1316,-1332 "/>
<path fill="none" stroke="gray" d="M1316,-1332C1316,-1338 1310,-1344 1304,-1344"/>
<polyline fill="none" stroke="gray" points="1304,-1344 740,-1344 "/>
<path fill="none" stroke="gray" d="M740,-1344C734,-1344 728,-1338 728,-1332"/>
<polyline fill="none" stroke="gray" points="728,-1332 728,-334 "/>
<path fill="none" stroke="gray" d="M728,-334C728,-328 734,-322 740,-322"/>
<text text-anchor="middle" x="1022" y="-1330.1" font-family="Times,serif" font-size="11.00" fill="gray">NetopeerBundle</text>
</g>
<g id="graph4" class="cluster"><title>cluster_FIT\NetopeerBundle\Controller</title>
<polyline fill="none" stroke="gray" points="748,-1082 1278,-1082 "/>
<path fill="none" stroke="gray" d="M1278,-1082C1284,-1082 1290,-1088 1290,-1094"/>
<polyline fill="none" stroke="gray" points="1290,-1094 1290,-1304 "/>
<path fill="none" stroke="gray" d="M1290,-1304C1290,-1310 1284,-1316 1278,-1316"/>
<polyline fill="none" stroke="gray" points="1278,-1316 748,-1316 "/>
<path fill="none" stroke="gray" d="M748,-1316C742,-1316 736,-1310 736,-1304"/>
<polyline fill="none" stroke="gray" points="736,-1304 736,-1094 "/>
<path fill="none" stroke="gray" d="M736,-1094C736,-1088 742,-1082 748,-1082"/>
<text text-anchor="middle" x="1013" y="-1302.1" font-family="Times,serif" font-size="11.00" fill="gray">Controller</text>
</g>
<g id="graph5" class="cluster"><title>cluster_FIT\NetopeerBundle\DependencyInjection</title>
<polyline fill="none" stroke="gray" points="1141,-948 1285,-948 "/>
<path fill="none" stroke="gray" d="M1285,-948C1291,-948 1297,-954 1297,-960"/>
<polyline fill="none" stroke="gray" points="1297,-960 1297,-1062 "/>
<path fill="none" stroke="gray" d="M1297,-1062C1297,-1068 1291,-1074 1285,-1074"/>
<polyline fill="none" stroke="gray" points="1285,-1074 1141,-1074 "/>
<path fill="none" stroke="gray" d="M1141,-1074C1135,-1074 1129,-1068 1129,-1062"/>
<polyline fill="none" stroke="gray" points="1129,-1062 1129,-960 "/>
<path fill="none" stroke="gray" d="M1129,-960C1129,-954 1135,-948 1141,-948"/>
<text text-anchor="middle" x="1213" y="-1060.1" font-family="Times,serif" font-size="11.00" fill="gray">DependencyInjection</text>
</g>
<g id="graph6" class="cluster"><title>cluster_FIT\NetopeerBundle\Entity</title>
<polyline fill="none" stroke="gray" points="1152,-760 1274,-760 "/>
<path fill="none" stroke="gray" d="M1274,-760C1280,-760 1286,-766 1286,-772"/>
<polyline fill="none" stroke="gray" points="1286,-772 1286,-928 "/>
<path fill="none" stroke="gray" d="M1286,-928C1286,-934 1280,-940 1274,-940"/>
<polyline fill="none" stroke="gray" points="1274,-940 1152,-940 "/>
<path fill="none" stroke="gray" d="M1152,-940C1146,-940 1140,-934 1140,-928"/>
<polyline fill="none" stroke="gray" points="1140,-928 1140,-772 "/>
<path fill="none" stroke="gray" d="M1140,-772C1140,-766 1146,-760 1152,-760"/>
<text text-anchor="middle" x="1213" y="-926.1" font-family="Times,serif" font-size="11.00" fill="gray">Entity</text>
</g>
<g id="graph7" class="cluster"><title>cluster_FIT\NetopeerBundle\Models</title>
<polyline fill="none" stroke="gray" points="1162,-572 1264,-572 "/>
<path fill="none" stroke="gray" d="M1264,-572C1270,-572 1276,-578 1276,-584"/>
<polyline fill="none" stroke="gray" points="1276,-584 1276,-740 "/>
<path fill="none" stroke="gray" d="M1276,-740C1276,-746 1270,-752 1264,-752"/>
<polyline fill="none" stroke="gray" points="1264,-752 1162,-752 "/>
<path fill="none" stroke="gray" d="M1162,-752C1156,-752 1150,-746 1150,-740"/>
<polyline fill="none" stroke="gray" points="1150,-740 1150,-584 "/>
<path fill="none" stroke="gray" d="M1150,-584C1150,-578 1156,-572 1162,-572"/>
<text text-anchor="middle" x="1213" y="-738.1" font-family="Times,serif" font-size="11.00" fill="gray">Models</text>
</g>
<g id="graph8" class="cluster"><title>cluster_FIT\NetopeerBundle\Tests</title>
<polyline fill="none" stroke="gray" points="1130,-456 1296,-456 "/>
<path fill="none" stroke="gray" d="M1296,-456C1302,-456 1308,-462 1308,-468"/>
<polyline fill="none" stroke="gray" points="1308,-468 1308,-552 "/>
<path fill="none" stroke="gray" d="M1308,-552C1308,-558 1302,-564 1296,-564"/>
<polyline fill="none" stroke="gray" points="1296,-564 1130,-564 "/>
<path fill="none" stroke="gray" d="M1130,-564C1124,-564 1118,-558 1118,-552"/>
<polyline fill="none" stroke="gray" points="1118,-552 1118,-468 "/>
<path fill="none" stroke="gray" d="M1118,-468C1118,-462 1124,-456 1130,-456"/>
<text text-anchor="middle" x="1213" y="-550.1" font-family="Times,serif" font-size="11.00" fill="gray">Tests</text>
</g>
<g id="graph9" class="cluster"><title>cluster_FIT\NetopeerBundle\Tests\Controller</title>
<polyline fill="none" stroke="gray" points="1138,-464 1288,-464 "/>
<path fill="none" stroke="gray" d="M1288,-464C1294,-464 1300,-470 1300,-476"/>
<polyline fill="none" stroke="gray" points="1300,-476 1300,-524 "/>
<path fill="none" stroke="gray" d="M1300,-524C1300,-530 1294,-536 1288,-536"/>
<polyline fill="none" stroke="gray" points="1288,-536 1138,-536 "/>
<path fill="none" stroke="gray" d="M1138,-536C1132,-536 1126,-530 1126,-524"/>
<polyline fill="none" stroke="gray" points="1126,-524 1126,-476 "/>
<path fill="none" stroke="gray" d="M1126,-476C1126,-470 1132,-464 1138,-464"/>
<text text-anchor="middle" x="1213" y="-522.1" font-family="Times,serif" font-size="11.00" fill="gray">Controller</text>
</g>
<g id="graph10" class="cluster"><title>cluster_FIT\NetopeerBundle\Twig</title>
<polyline fill="none" stroke="gray" points="1138,-376 1288,-376 "/>
<path fill="none" stroke="gray" d="M1288,-376C1294,-376 1300,-382 1300,-388"/>
<polyline fill="none" stroke="gray" points="1300,-388 1300,-436 "/>
<path fill="none" stroke="gray" d="M1300,-436C1300,-442 1294,-448 1288,-448"/>
<polyline fill="none" stroke="gray" points="1288,-448 1138,-448 "/>
<path fill="none" stroke="gray" d="M1138,-448C1132,-448 1126,-442 1126,-436"/>
<polyline fill="none" stroke="gray" points="1126,-436 1126,-388 "/>
<path fill="none" stroke="gray" d="M1126,-388C1126,-382 1132,-376 1138,-376"/>
<text text-anchor="middle" x="1213" y="-434.1" font-family="Times,serif" font-size="11.00" fill="gray">Twig</text>
</g>
<!-- \\FIT\\NetopeerBundle\\Controller\\DefaultController -->
<g id="node4" class="node"><title>\\FIT\\NetopeerBundle\\Controller\\DefaultController</title>
<a xlink:href="Controller.DefaultController.html" xlink:title="DefaultController" target="_parent">
<polygon fill="none" stroke="black" points="1278,-1288 1148,-1288 1148,-1252 1278,-1252 1278,-1288"/>
<text text-anchor="middle" x="1213" y="-1266.6" font-family="Courier,monospace" font-size="11.00">DefaultController</text>
</a>
</g>
<!-- \\FIT\\NetopeerBundle\\Controller\\BaseController -->
<g id="node8" class="node"><title>\\FIT\\NetopeerBundle\\Controller\\BaseController</title>
<a xlink:href="Controller.BaseController.html" xlink:title="BaseController" target="_parent">
<polygon fill="none" stroke="black" points="854,-1207 744,-1207 744,-1171 854,-1171 854,-1207"/>
<text text-anchor="middle" x="799" y="-1185.6" font-family="Courier,monospace" font-size="11.00">BaseController</text>
</a>
</g>
<!-- \\FIT\\NetopeerBundle\\Controller\\DefaultController&#45;&gt;\\FIT\\NetopeerBundle\\Controller\\BaseController -->
<g id="edge26" class="edge"><title>\\FIT\\NetopeerBundle\\Controller\\DefaultController&#45;&gt;\\FIT\\NetopeerBundle\\Controller\\BaseController</title>
<path fill="none" stroke="black" d="M1147.4,-1257.17C1069.83,-1241.99 941.51,-1216.88 864.139,-1201.74"/>
<polygon fill="none" stroke="black" points="864.521,-1198.25 854.035,-1199.77 863.177,-1205.12 864.521,-1198.25"/>
</g>
<!-- \\FIT\\NetopeerBundle\\Controller\\GenerateController -->
<g id="node5" class="node"><title>\\FIT\\NetopeerBundle\\Controller\\GenerateController</title>
<a xlink:href="Controller.GenerateController.html" xlink:title="GenerateController" target="_parent">
<polygon fill="none" stroke="black" points="1282,-1234 1144,-1234 1144,-1198 1282,-1198 1282,-1234"/>
<text text-anchor="middle" x="1213" y="-1212.6" font-family="Courier,monospace" font-size="11.00">GenerateController</text>
</a>
</g>
<!-- \\FIT\\NetopeerBundle\\Controller\\GenerateController&#45;&gt;\\FIT\\NetopeerBundle\\Controller\\BaseController -->
<g id="edge28" class="edge"><title>\\FIT\\NetopeerBundle\\Controller\\GenerateController&#45;&gt;\\FIT\\NetopeerBundle\\Controller\\BaseController</title>
<path fill="none" stroke="black" d="M1143.71,-1211.48C1065.99,-1206.41 940.881,-1198.25 864.675,-1193.28"/>
<polygon fill="none" stroke="black" points="864.463,-1189.76 854.256,-1192.6 864.007,-1196.75 864.463,-1189.76"/>
</g>
<!-- \\FIT\\NetopeerBundle\\Controller\\SecurityController -->
<g id="node6" class="node"><title>\\FIT\\NetopeerBundle\\Controller\\SecurityController</title>
<a xlink:href="Controller.SecurityController.html" xlink:title="SecurityController" target="_parent">
<polygon fill="none" stroke="black" points="1281,-1180 1145,-1180 1145,-1144 1281,-1144 1281,-1180"/>
<text text-anchor="middle" x="1213" y="-1158.6" font-family="Courier,monospace" font-size="11.00">SecurityController</text>
</a>
</g>
<!-- \\FIT\\NetopeerBundle\\Controller\\SecurityController&#45;&gt;\\FIT\\NetopeerBundle\\Controller\\BaseController -->
<g id="edge30" class="edge"><title>\\FIT\\NetopeerBundle\\Controller\\SecurityController&#45;&gt;\\FIT\\NetopeerBundle\\Controller\\BaseController</title>
<path fill="none" stroke="black" d="M1144.17,-1166.49C1066.43,-1171.56 940.849,-1179.75 864.507,-1184.73"/>
<polygon fill="none" stroke="black" points="863.822,-1181.26 854.071,-1185.41 864.278,-1188.25 863.822,-1181.26"/>
</g>
<!-- \\FIT\\NetopeerBundle\\Controller\\AjaxController -->
<g id="node7" class="node"><title>\\FIT\\NetopeerBundle\\Controller\\AjaxController</title>
<a xlink:href="Controller.AjaxController.html" xlink:title="AjaxController" target="_parent">
<polygon fill="none" stroke="black" points="1268,-1126 1158,-1126 1158,-1090 1268,-1090 1268,-1126"/>
<text text-anchor="middle" x="1213" y="-1104.6" font-family="Courier,monospace" font-size="11.00">AjaxController</text>
</a>
</g>
<!-- \\FIT\\NetopeerBundle\\Controller\\AjaxController&#45;&gt;\\FIT\\NetopeerBundle\\Controller\\BaseController -->
<g id="edge32" class="edge"><title>\\FIT\\NetopeerBundle\\Controller\\AjaxController&#45;&gt;\\FIT\\NetopeerBundle\\Controller\\BaseController</title>
<path fill="none" stroke="black" d="M1157.46,-1121.34C1144.31,-1125.17 1130.49,-1129.75 1118,-1135 1091.58,-1146.11 1089.37,-1158.49 1062,-1167 996.847,-1187.25 918.509,-1191.38 864.366,-1191.3"/>
<polygon fill="none" stroke="black" points="864.232,-1187.8 854.209,-1191.24 864.187,-1194.8 864.232,-1187.8"/>
</g>
<!-- \\Symfony\\Bundle\\FrameworkBundle\\Controller\\Controller -->
<g id="node46" class="node"><title>\\Symfony\\Bundle\\FrameworkBundle\\Controller\\Controller</title>
<ellipse fill="none" stroke="black" cx="232" cy="-1189" rx="230.88" ry="18"/>
<text text-anchor="middle" x="232" y="-1183.9" font-family="Times,serif" font-size="14.00" fill="gray">\Symfony\Bundle\FrameworkBundle\Controller\Controller</text>
</g>
<!-- \\FIT\\NetopeerBundle\\Controller\\BaseController&#45;&gt;\\Symfony\\Bundle\\FrameworkBundle\\Controller\\Controller -->
<g id="edge34" class="edge"><title>\\FIT\\NetopeerBundle\\Controller\\BaseController&#45;&gt;\\Symfony\\Bundle\\FrameworkBundle\\Controller\\Controller</title>
<path fill="none" stroke="black" d="M743.86,-1189C680.97,-1189 573.877,-1189 473.854,-1189"/>
<polygon fill="none" stroke="black" points="473.575,-1185.5 463.575,-1189 473.575,-1192.5 473.575,-1185.5"/>
</g>
<!-- \\FIT\\NetopeerBundle\\DependencyInjection\\FITNetopeerExtension -->
<g id="node10" class="node"><title>\\FIT\\NetopeerBundle\\DependencyInjection\\FITNetopeerExtension</title>
<a xlink:href="DependencyInjection.FITNetopeerExtension.html" xlink:title="FITNetopeerExtension" target="_parent">
<polygon fill="none" stroke="black" points="1289,-1046 1137,-1046 1137,-1010 1289,-1010 1289,-1046"/>
<text text-anchor="middle" x="1213" y="-1024.6" font-family="Courier,monospace" font-size="11.00">FITNetopeerExtension</text>
</a>
</g>
<!-- \\Symfony\\Component\\HttpKernel\\DependencyInjection\\Extension -->
<g id="node36" class="node"><title>\\Symfony\\Component\\HttpKernel\\DependencyInjection\\Extension</title>
<ellipse fill="none" stroke="black" cx="799" cy="-288" rx="258.177" ry="18"/>
<text text-anchor="middle" x="799" y="-282.9" font-family="Times,serif" font-size="14.00" fill="gray">\Symfony\Component\HttpKernel\DependencyInjection\Extension</text>
</g>
<!-- \\FIT\\NetopeerBundle\\DependencyInjection\\FITNetopeerExtension&#45;&gt;\\Symfony\\Component\\HttpKernel\\DependencyInjection\\Extension -->
<g id="edge20" class="edge"><title>\\FIT\\NetopeerBundle\\DependencyInjection\\FITNetopeerExtension&#45;&gt;\\Symfony\\Component\\HttpKernel\\DependencyInjection\\Extension</title>
<path fill="none" stroke="black" d="M1136.72,-1013.05C1129.96,-1009.79 1123.57,-1005.83 1118,-1001 893.48,-806.646 819.655,-423.094 802.998,-316.226"/>
<polygon fill="none" stroke="black" points="806.44,-315.576 801.48,-306.213 799.519,-316.625 806.44,-315.576"/>
</g>
<!-- \\FIT\\NetopeerBundle\\DependencyInjection\\Configuration -->
<g id="node11" class="node"><title>\\FIT\\NetopeerBundle\\DependencyInjection\\Configuration</title>
<a xlink:href="DependencyInjection.Configuration.html" xlink:title="Configuration" target="_parent">
<polygon fill="none" stroke="black" points="1265,-992 1161,-992 1161,-956 1265,-956 1265,-992"/>
<text text-anchor="middle" x="1213" y="-970.6" font-family="Courier,monospace" font-size="11.00">Configuration</text>
</a>
</g>
<!-- \\Symfony\\Component\\Config\\Definition\\ConfigurationInterface -->
<g id="node50" class="node"><title>\\Symfony\\Component\\Config\\Definition\\ConfigurationInterface</title>
<ellipse fill="none" stroke="black" cx="799" cy="-234" rx="262.077" ry="18"/>
<text text-anchor="middle" x="799" y="-228.9" font-family="Times,serif" font-size="14.00" fill="gray">\\Symfony\\Component\\Config\\Definition\\ConfigurationInterface</text>
</g>
<!-- \\FIT\\NetopeerBundle\\DependencyInjection\\Configuration&#45;&gt;\\Symfony\\Component\\Config\\Definition\\ConfigurationInterface -->
<g id="edge38" class="edge"><title>\\FIT\\NetopeerBundle\\DependencyInjection\\Configuration&#45;&gt;\\Symfony\\Component\\Config\\Definition\\ConfigurationInterface</title>
<path fill="none" stroke="black" stroke-dasharray="1,5" d="M1160.69,-968.835C1144.64,-964.598 1128.46,-957.115 1118,-944 1023.03,-824.953 1168.57,-369.781 1062,-261 1020.42,-218.56 953.648,-212.135 897.791,-216.155"/>
<polygon fill="none" stroke="black" points="897.168,-212.695 887.496,-217.021 897.755,-219.67 897.168,-212.695"/>
</g>
<!-- \\FIT\\NetopeerBundle\\Entity\\User -->
<g id="node13" class="node"><title>\\FIT\\NetopeerBundle\\Entity\\User</title>
<a xlink:href="Entity.User.html" xlink:title="User" target="_parent">
<polygon fill="none" stroke="black" points="1240,-912 1186,-912 1186,-876 1240,-876 1240,-912"/>
<text text-anchor="middle" x="1213" y="-890.6" font-family="Courier,monospace" font-size="11.00">User</text>
</a>
</g>
<!-- \\Symfony\\Component\\Security\\Core\\User\\UserInterface -->
<g id="node48" class="node"><title>\\Symfony\\Component\\Security\\Core\\User\\UserInterface</title>
<ellipse fill="none" stroke="black" cx="799" cy="-180" rx="234.78" ry="18"/>
<text text-anchor="middle" x="799" y="-174.9" font-family="Times,serif" font-size="14.00" fill="gray">\\Symfony\\Component\\Security\\Core\\User\\UserInterface</text>
</g>
<!-- \\FIT\\NetopeerBundle\\Entity\\User&#45;&gt;\\Symfony\\Component\\Security\\Core\\User\\UserInterface -->
<g id="edge36" class="edge"><title>\\FIT\\NetopeerBundle\\Entity\\User&#45;&gt;\\Symfony\\Component\\Security\\Core\\User\\UserInterface</title>
<path fill="none" stroke="black" stroke-dasharray="1,5" d="M1185.6,-894.125C1163.76,-892.628 1134.25,-886.716 1118,-867 1024.39,-753.409 1165.16,-311.996 1062,-207 1019.82,-164.067 951.848,-158.032 895.573,-162.36"/>
<polygon fill="none" stroke="black" points="895.224,-158.877 885.571,-163.246 895.841,-165.85 895.224,-158.877"/>
</g>
<!-- \\FIT\\NetopeerBundle\\Entity\\BaseConnection -->
<g id="node14" class="node"><title>\\FIT\\NetopeerBundle\\Entity\\BaseConnection</title>
<a xlink:href="Entity.BaseConnection.html" xlink:title="BaseConnection" target="_parent">
<polygon fill="none" stroke="black" points="1268,-858 1158,-858 1158,-822 1268,-822 1268,-858"/>
<text text-anchor="middle" x="1213" y="-836.6" font-family="Courier,monospace" font-size="11.00">BaseConnection</text>
</a>
</g>
<!-- \\FIT\\NetopeerBundle\\Entity\\ConnectionSession -->
<g id="node15" class="node"><title>\\FIT\\NetopeerBundle\\Entity\\ConnectionSession</title>
<a xlink:href="Entity.ConnectionSession.html" xlink:title="ConnectionSession" target="_parent">
<polygon fill="none" stroke="black" points="1277,-804 1149,-804 1149,-768 1277,-768 1277,-804"/>
<text text-anchor="middle" x="1213" y="-782.6" font-family="Courier,monospace" font-size="11.00">ConnectionSession</text>
</a>
</g>
<!-- \\FIT\\NetopeerBundle\\Models\\XMLoperations -->
<g id="node17" class="node"><title>\\FIT\\NetopeerBundle\\Models\\XMLoperations</title>
<a xlink:href="Models.XMLoperations.html" xlink:title="XMLoperations" target="_parent">
<polygon fill="none" stroke="black" points="1265,-724 1161,-724 1161,-688 1265,-688 1265,-724"/>
<text text-anchor="middle" x="1213" y="-702.6" font-family="Courier,monospace" font-size="11.00">XMLoperations</text>
</a>
</g>
<!-- \\FIT\\NetopeerBundle\\Models\\AjaxSharedData -->
<g id="node18" class="node"><title>\\FIT\\NetopeerBundle\\Models\\AjaxSharedData</title>
<a xlink:href="Models.AjaxSharedData.html" xlink:title="AjaxSharedData" target="_parent">
<polygon fill="none" stroke="black" points="1268,-670 1158,-670 1158,-634 1268,-634 1268,-670"/>
<text text-anchor="middle" x="1213" y="-648.6" font-family="Courier,monospace" font-size="11.00">AjaxSharedData</text>
</a>
</g>
<!-- \\FIT\\NetopeerBundle\\Models\\Data -->
<g id="node19" class="node"><title>\\FIT\\NetopeerBundle\\Models\\Data</title>
<a xlink:href="Models.Data.html" xlink:title="Data" target="_parent">
<polygon fill="none" stroke="black" points="1240,-616 1186,-616 1186,-580 1240,-580 1240,-616"/>
<text text-anchor="middle" x="1213" y="-594.6" font-family="Courier,monospace" font-size="11.00">Data</text>
</a>
</g>
<!-- \\FIT\\NetopeerBundle\\Tests\\Controller\\DefaultControllerTest -->
<g id="node22" class="node"><title>\\FIT\\NetopeerBundle\\Tests\\Controller\\DefaultControllerTest</title>
<a xlink:href="Tests.Controller.DefaultControllerTest.html" xlink:title="DefaultControllerTest" target="_parent">
<polygon fill="none" stroke="black" points="1292,-508 1134,-508 1134,-472 1292,-472 1292,-508"/>
<text text-anchor="middle" x="1213" y="-486.6" font-family="Courier,monospace" font-size="11.00">DefaultControllerTest</text>
</a>
</g>
<!-- \\Symfony\\Bundle\\FrameworkBundle\\Test\\WebTestCase -->
<g id="node38" class="node"><title>\\Symfony\\Bundle\\FrameworkBundle\\Test\\WebTestCase</title>
<ellipse fill="none" stroke="black" cx="799" cy="-126" rx="221.13" ry="18"/>
<text text-anchor="middle" x="799" y="-120.9" font-family="Times,serif" font-size="14.00" fill="gray">\Symfony\Bundle\FrameworkBundle\Test\WebTestCase</text>
</g>
<!-- \\FIT\\NetopeerBundle\\Tests\\Controller\\DefaultControllerTest&#45;&gt;\\Symfony\\Bundle\\FrameworkBundle\\Test\\WebTestCase -->
<g id="edge22" class="edge"><title>\\FIT\\NetopeerBundle\\Tests\\Controller\\DefaultControllerTest&#45;&gt;\\Symfony\\Bundle\\FrameworkBundle\\Test\\WebTestCase</title>
<path fill="none" stroke="black" d="M1143.11,-471.766C1133.58,-466.698 1124.77,-460.236 1118,-452 1032.18,-347.532 1161.48,-244.56 1062,-153 1020.83,-115.11 959.243,-107.181 906.012,-109.272"/>
<polygon fill="none" stroke="black" points="905.638,-105.787 895.831,-109.796 905.998,-112.777 905.638,-105.787"/>
</g>
<!-- \\FIT\\NetopeerBundle\\Twig\\NetopeerTwigExtension -->
<g id="node24" class="node"><title>\\FIT\\NetopeerBundle\\Twig\\NetopeerTwigExtension</title>
<a xlink:href="Twig.NetopeerTwigExtension.html" xlink:title="NetopeerTwigExtension" target="_parent">
<polygon fill="none" stroke="black" points="1292,-420 1134,-420 1134,-384 1292,-384 1292,-420"/>
<text text-anchor="middle" x="1213" y="-398.6" font-family="Courier,monospace" font-size="11.00">NetopeerTwigExtension</text>
</a>
</g>
<!-- \\Twig_Extension -->
<g id="node34" class="node"><title>\\Twig_Extension</title>
<ellipse fill="none" stroke="black" cx="799" cy="-72" rx="74.894" ry="18"/>
<text text-anchor="middle" x="799" y="-66.9" font-family="Times,serif" font-size="14.00" fill="gray">\Twig_Extension</text>
</g>
<!-- \\FIT\\NetopeerBundle\\Twig\\NetopeerTwigExtension&#45;&gt;\\Twig_Extension -->
<g id="edge18" class="edge"><title>\\FIT\\NetopeerBundle\\Twig\\NetopeerTwigExtension&#45;&gt;\\Twig_Extension</title>
<path fill="none" stroke="black" d="M1133.85,-391.594C1128,-388.547 1122.6,-384.74 1118,-380 1029.35,-288.575 1156.2,-184.697 1062,-99 1009.69,-51.4054 925.067,-51.3234 865.985,-58.8012"/>
<polygon fill="none" stroke="black" points="865.432,-55.3441 855.998,-60.1671 866.38,-62.2795 865.432,-55.3441"/>
</g>
<!-- \\FIT\\NetopeerBundle\\FITNetopeerBundle -->
<g id="node25" class="node"><title>\\FIT\\NetopeerBundle\\FITNetopeerBundle</title>
<a xlink:href="FITNetopeerBundle.html" xlink:title="FITNetopeerBundle" target="_parent">
<polygon fill="none" stroke="black" points="1279,-366 1147,-366 1147,-330 1279,-330 1279,-366"/>
<text text-anchor="middle" x="1213" y="-344.6" font-family="Courier,monospace" font-size="11.00">FITNetopeerBundle</text>
</a>
</g>
<!-- \\Symfony\\Component\\HttpKernel\\Bundle\\Bundle -->
<g id="node40" class="node"><title>\\Symfony\\Component\\HttpKernel\\Bundle\\Bundle</title>
<ellipse fill="none" stroke="black" cx="799" cy="-18" rx="195.132" ry="18"/>
<text text-anchor="middle" x="799" y="-12.9" font-family="Times,serif" font-size="14.00" fill="gray">\Symfony\Component\HttpKernel\Bundle\Bundle</text>
</g>
<!-- \\FIT\\NetopeerBundle\\FITNetopeerBundle&#45;&gt;\\Symfony\\Component\\HttpKernel\\Bundle\\Bundle -->
<g id="edge24" class="edge"><title>\\FIT\\NetopeerBundle\\FITNetopeerBundle&#45;&gt;\\Symfony\\Component\\HttpKernel\\Bundle\\Bundle</title>
<path fill="none" stroke="black" d="M1210.1,-329.746C1200.43,-275.65 1163.97,-115.574 1062,-45 1043.92,-32.4851 1023.39,-23.7089 1001.97,-17.7104"/>
<polygon fill="none" stroke="black" points="1002.63,-14.2654 992.068,-15.1463 1000.87,-21.0418 1002.63,-14.2654"/>
</g>
</g>
</svg>
