<?xml version="1.0" encoding="UTF-8" standalone="no"?>
<!DOCTYPE svg PUBLIC "-//W3C//DTD SVG 1.1//EN"
 "http://www.w3.org/Graphics/SVG/1.1/DTD/svg11.dtd">
<!-- Generated by graphviz version 2.26.3 (20100126.1600)
 -->
<!-- Title: G Pages: 1 -->
<svg width="1340pt" height="1280pt"
 viewBox="0.00 0.00 1340.00 1280.00" xmlns="http://www.w3.org/2000/svg" xmlns:xlink="http://www.w3.org/1999/xlink">
<g id="graph1" class="graph" transform="scale(1 1) rotate(0) translate(4 1276)">
<title>G</title>
<polygon fill="white" stroke="white" points="-4,5 -4,-1276 1337,-1276 1337,5 -4,5"/>
<g id="graph2" class="cluster"><title>cluster_FIT</title>
<polyline fill="none" stroke="gray" points="732,-260 1312,-260 "/>
<path fill="none" stroke="gray" d="M1312,-260C1318,-260 1324,-266 1324,-272"/>
<polyline fill="none" stroke="gray" points="1324,-272 1324,-1252 "/>
<path fill="none" stroke="gray" d="M1324,-1252C1324,-1258 1318,-1264 1312,-1264"/>
<polyline fill="none" stroke="gray" points="1312,-1264 732,-1264 "/>
<path fill="none" stroke="gray" d="M732,-1264C726,-1264 720,-1258 720,-1252"/>
<polyline fill="none" stroke="gray" points="720,-1252 720,-272 "/>
<path fill="none" stroke="gray" d="M720,-272C720,-266 726,-260 732,-260"/>
<text text-anchor="middle" x="1022" y="-1250.1" font-family="Times,serif" font-size="11.00" fill="gray">FIT</text>
</g>
<g id="graph3" class="cluster"><title>cluster_FIT\NetopeerBundle</title>
<polyline fill="none" stroke="gray" points="740,-268 1304,-268 "/>
<path fill="none" stroke="gray" d="M1304,-268C1310,-268 1316,-274 1316,-280"/>
<polyline fill="none" stroke="gray" points="1316,-280 1316,-1224 "/>
<path fill="none" stroke="gray" d="M1316,-1224C1316,-1230 1310,-1236 1304,-1236"/>
<polyline fill="none" stroke="gray" points="1304,-1236 740,-1236 "/>
<path fill="none" stroke="gray" d="M740,-1236C734,-1236 728,-1230 728,-1224"/>
<polyline fill="none" stroke="gray" points="728,-1224 728,-280 "/>
<path fill="none" stroke="gray" d="M728,-280C728,-274 734,-268 740,-268"/>
<text text-anchor="middle" x="1022" y="-1222.1" font-family="Times,serif" font-size="11.00" fill="gray">NetopeerBundle</text>
</g>
<g id="graph4" class="cluster"><title>cluster_FIT\NetopeerBundle\Controller</title>
<polyline fill="none" stroke="gray" points="748,-974 1278,-974 "/>
<path fill="none" stroke="gray" d="M1278,-974C1284,-974 1290,-980 1290,-986"/>
<polyline fill="none" stroke="gray" points="1290,-986 1290,-1196 "/>
<path fill="none" stroke="gray" d="M1290,-1196C1290,-1202 1284,-1208 1278,-1208"/>
<polyline fill="none" stroke="gray" points="1278,-1208 748,-1208 "/>
<path fill="none" stroke="gray" d="M748,-1208C742,-1208 736,-1202 736,-1196"/>
<polyline fill="none" stroke="gray" points="736,-1196 736,-986 "/>
<path fill="none" stroke="gray" d="M736,-986C736,-980 742,-974 748,-974"/>
<text text-anchor="middle" x="1013" y="-1194.1" font-family="Times,serif" font-size="11.00" fill="gray">Controller</text>
</g>
<g id="graph5" class="cluster"><title>cluster_FIT\NetopeerBundle\DependencyInjection</title>
<polyline fill="none" stroke="gray" points="1141,-840 1285,-840 "/>
<path fill="none" stroke="gray" d="M1285,-840C1291,-840 1297,-846 1297,-852"/>
<polyline fill="none" stroke="gray" points="1297,-852 1297,-954 "/>
<path fill="none" stroke="gray" d="M1297,-954C1297,-960 1291,-966 1285,-966"/>
<polyline fill="none" stroke="gray" points="1285,-966 1141,-966 "/>
<path fill="none" stroke="gray" d="M1141,-966C1135,-966 1129,-960 1129,-954"/>
<polyline fill="none" stroke="gray" points="1129,-954 1129,-852 "/>
<path fill="none" stroke="gray" d="M1129,-852C1129,-846 1135,-840 1141,-840"/>
<text text-anchor="middle" x="1213" y="-952.1" font-family="Times,serif" font-size="11.00" fill="gray">DependencyInjection</text>
</g>
<g id="graph6" class="cluster"><title>cluster_FIT\NetopeerBundle\Entity</title>
<polyline fill="none" stroke="gray" points="1168,-760 1258,-760 "/>
<path fill="none" stroke="gray" d="M1258,-760C1264,-760 1270,-766 1270,-772"/>
<polyline fill="none" stroke="gray" points="1270,-772 1270,-820 "/>
<path fill="none" stroke="gray" d="M1270,-820C1270,-826 1264,-832 1258,-832"/>
<polyline fill="none" stroke="gray" points="1258,-832 1168,-832 "/>
<path fill="none" stroke="gray" d="M1168,-832C1162,-832 1156,-826 1156,-820"/>
<polyline fill="none" stroke="gray" points="1156,-820 1156,-772 "/>
<path fill="none" stroke="gray" d="M1156,-772C1156,-766 1162,-760 1168,-760"/>
<text text-anchor="middle" x="1213" y="-818.1" font-family="Times,serif" font-size="11.00" fill="gray">Entity</text>
</g>
<g id="graph7" class="cluster"><title>cluster_FIT\NetopeerBundle\Models</title>
<polyline fill="none" stroke="gray" points="1152,-518 1274,-518 "/>
<path fill="none" stroke="gray" d="M1274,-518C1280,-518 1286,-524 1286,-530"/>
<polyline fill="none" stroke="gray" points="1286,-530 1286,-740 "/>
<path fill="none" stroke="gray" d="M1286,-740C1286,-746 1280,-752 1274,-752"/>
<polyline fill="none" stroke="gray" points="1274,-752 1152,-752 "/>
<path fill="none" stroke="gray" d="M1152,-752C1146,-752 1140,-746 1140,-740"/>
<polyline fill="none" stroke="gray" points="1140,-740 1140,-530 "/>
<path fill="none" stroke="gray" d="M1140,-530C1140,-524 1146,-518 1152,-518"/>
<text text-anchor="middle" x="1213" y="-738.1" font-family="Times,serif" font-size="11.00" fill="gray">Models</text>
</g>
<g id="graph8" class="cluster"><title>cluster_FIT\NetopeerBundle\Tests</title>
<polyline fill="none" stroke="gray" points="1130,-402 1296,-402 "/>
<path fill="none" stroke="gray" d="M1296,-402C1302,-402 1308,-408 1308,-414"/>
<polyline fill="none" stroke="gray" points="1308,-414 1308,-498 "/>
<path fill="none" stroke="gray" d="M1308,-498C1308,-504 1302,-510 1296,-510"/>
<polyline fill="none" stroke="gray" points="1296,-510 1130,-510 "/>
<path fill="none" stroke="gray" d="M1130,-510C1124,-510 1118,-504 1118,-498"/>
<polyline fill="none" stroke="gray" points="1118,-498 1118,-414 "/>
<path fill="none" stroke="gray" d="M1118,-414C1118,-408 1124,-402 1130,-402"/>
<text text-anchor="middle" x="1213" y="-496.1" font-family="Times,serif" font-size="11.00" fill="gray">Tests</text>
</g>
<g id="graph9" class="cluster"><title>cluster_FIT\NetopeerBundle\Tests\Controller</title>
<polyline fill="none" stroke="gray" points="1138,-410 1288,-410 "/>
<path fill="none" stroke="gray" d="M1288,-410C1294,-410 1300,-416 1300,-422"/>
<polyline fill="none" stroke="gray" points="1300,-422 1300,-470 "/>
<path fill="none" stroke="gray" d="M1300,-470C1300,-476 1294,-482 1288,-482"/>
<polyline fill="none" stroke="gray" points="1288,-482 1138,-482 "/>
<path fill="none" stroke="gray" d="M1138,-482C1132,-482 1126,-476 1126,-470"/>
<polyline fill="none" stroke="gray" points="1126,-470 1126,-422 "/>
<path fill="none" stroke="gray" d="M1126,-422C1126,-416 1132,-410 1138,-410"/>
<text text-anchor="middle" x="1213" y="-468.1" font-family="Times,serif" font-size="11.00" fill="gray">Controller</text>
</g>
<g id="graph10" class="cluster"><title>cluster_FIT\NetopeerBundle\Twig</title>
<polyline fill="none" stroke="gray" points="1138,-322 1288,-322 "/>
<path fill="none" stroke="gray" d="M1288,-322C1294,-322 1300,-328 1300,-334"/>
<polyline fill="none" stroke="gray" points="1300,-334 1300,-382 "/>
<path fill="none" stroke="gray" d="M1300,-382C1300,-388 1294,-394 1288,-394"/>
<polyline fill="none" stroke="gray" points="1288,-394 1138,-394 "/>
<path fill="none" stroke="gray" d="M1138,-394C1132,-394 1126,-388 1126,-382"/>
<polyline fill="none" stroke="gray" points="1126,-382 1126,-334 "/>
<path fill="none" stroke="gray" d="M1126,-334C1126,-328 1132,-322 1138,-322"/>
<text text-anchor="middle" x="1213" y="-380.1" font-family="Times,serif" font-size="11.00" fill="gray">Twig</text>
</g>
<!-- \\FIT\\NetopeerBundle\\Controller\\DefaultController -->
<g id="node4" class="node"><title>\\FIT\\NetopeerBundle\\Controller\\DefaultController</title>
<a xlink:href="Controller.DefaultController.html" xlink:title="DefaultController" target="_parent">
<polygon fill="none" stroke="black" points="1278,-1180 1148,-1180 1148,-1144 1278,-1144 1278,-1180"/>
<text text-anchor="middle" x="1213" y="-1158.6" font-family="Courier,monospace" font-size="11.00">DefaultController</text>
</a>
</g>
<!-- \\FIT\\NetopeerBundle\\Controller\\BaseController -->
<g id="node8" class="node"><title>\\FIT\\NetopeerBundle\\Controller\\BaseController</title>
<a xlink:href="Controller.BaseController.html" xlink:title="BaseController" target="_parent">
<polygon fill="none" stroke="black" points="854,-1099 744,-1099 744,-1063 854,-1063 854,-1099"/>
<text text-anchor="middle" x="799" y="-1077.6" font-family="Courier,monospace" font-size="11.00">BaseController</text>
</a>
</g>
<!-- \\FIT\\NetopeerBundle\\Controller\\DefaultController&#45;&gt;\\FIT\\NetopeerBundle\\Controller\\BaseController -->
<g id="edge26" class="edge"><title>\\FIT\\NetopeerBundle\\Controller\\DefaultController&#45;&gt;\\FIT\\NetopeerBundle\\Controller\\BaseController</title>
<path fill="none" stroke="black" d="M1147.4,-1149.17C1069.83,-1133.99 941.51,-1108.88 864.139,-1093.74"/>
<polygon fill="none" stroke="black" points="864.521,-1090.25 854.035,-1091.77 863.177,-1097.12 864.521,-1090.25"/>
</g>
<!-- \\FIT\\NetopeerBundle\\Controller\\GenerateController -->
<g id="node5" class="node"><title>\\FIT\\NetopeerBundle\\Controller\\GenerateController</title>
<a xlink:href="Controller.GenerateController.html" xlink:title="GenerateController" target="_parent">
<polygon fill="none" stroke="black" points="1282,-1126 1144,-1126 1144,-1090 1282,-1090 1282,-1126"/>
<text text-anchor="middle" x="1213" y="-1104.6" font-family="Courier,monospace" font-size="11.00">GenerateController</text>
</a>
</g>
<!-- \\FIT\\NetopeerBundle\\Controller\\GenerateController&#45;&gt;\\FIT\\NetopeerBundle\\Controller\\BaseController -->
<g id="edge28" class="edge"><title>\\FIT\\NetopeerBundle\\Controller\\GenerateController&#45;&gt;\\FIT\\NetopeerBundle\\Controller\\BaseController</title>
<path fill="none" stroke="black" d="M1143.71,-1103.48C1065.99,-1098.41 940.881,-1090.25 864.675,-1085.28"/>
<polygon fill="none" stroke="black" points="864.463,-1081.76 854.256,-1084.6 864.007,-1088.75 864.463,-1081.76"/>
</g>
<!-- \\FIT\\NetopeerBundle\\Controller\\SecurityController -->
<g id="node6" class="node"><title>\\FIT\\NetopeerBundle\\Controller\\SecurityController</title>
<a xlink:href="Controller.SecurityController.html" xlink:title="SecurityController" target="_parent">
<polygon fill="none" stroke="black" points="1281,-1072 1145,-1072 1145,-1036 1281,-1036 1281,-1072"/>
<text text-anchor="middle" x="1213" y="-1050.6" font-family="Courier,monospace" font-size="11.00">SecurityController</text>
</a>
</g>
<!-- \\FIT\\NetopeerBundle\\Controller\\SecurityController&#45;&gt;\\FIT\\NetopeerBundle\\Controller\\BaseController -->
<g id="edge30" class="edge"><title>\\FIT\\NetopeerBundle\\Controller\\SecurityController&#45;&gt;\\FIT\\NetopeerBundle\\Controller\\BaseController</title>
<path fill="none" stroke="black" d="M1144.17,-1058.49C1066.43,-1063.56 940.849,-1071.75 864.507,-1076.73"/>
<polygon fill="none" stroke="black" points="863.822,-1073.26 854.071,-1077.41 864.278,-1080.25 863.822,-1073.26"/>
</g>
<!-- \\FIT\\NetopeerBundle\\Controller\\AjaxController -->
<g id="node7" class="node"><title>\\FIT\\NetopeerBundle\\Controller\\AjaxController</title>
<a xlink:href="Controller.AjaxController.html" xlink:title="AjaxController" target="_parent">
<polygon fill="none" stroke="black" points="1268,-1018 1158,-1018 1158,-982 1268,-982 1268,-1018"/>
<text text-anchor="middle" x="1213" y="-996.6" font-family="Courier,monospace" font-size="11.00">AjaxController</text>
</a>
</g>
<!-- \\FIT\\NetopeerBundle\\Controller\\AjaxController&#45;&gt;\\FIT\\NetopeerBundle\\Controller\\BaseController -->
<g id="edge32" class="edge"><title>\\FIT\\NetopeerBundle\\Controller\\AjaxController&#45;&gt;\\FIT\\NetopeerBundle\\Controller\\BaseController</title>
<path fill="none" stroke="black" d="M1157.46,-1013.34C1144.31,-1017.17 1130.49,-1021.75 1118,-1027 1091.58,-1038.11 1089.37,-1050.49 1062,-1059 996.847,-1079.25 918.509,-1083.38 864.366,-1083.3"/>
<polygon fill="none" stroke="black" points="864.232,-1079.8 854.209,-1083.24 864.187,-1086.8 864.232,-1079.8"/>
</g>
<!-- \\Symfony\\Bundle\\FrameworkBundle\\Controller\\Controller -->
<g id="node45" class="node"><title>\\Symfony\\Bundle\\FrameworkBundle\\Controller\\Controller</title>
<ellipse fill="none" stroke="black" cx="232" cy="-1081" rx="230.88" ry="18"/>
<text text-anchor="middle" x="232" y="-1075.9" font-family="Times,serif" font-size="14.00" fill="gray">\Symfony\Bundle\FrameworkBundle\Controller\Controller</text>
</g>
<!-- \\FIT\\NetopeerBundle\\Controller\\BaseController&#45;&gt;\\Symfony\\Bundle\\FrameworkBundle\\Controller\\Controller -->
<g id="edge34" class="edge"><title>\\FIT\\NetopeerBundle\\Controller\\BaseController&#45;&gt;\\Symfony\\Bundle\\FrameworkBundle\\Controller\\Controller</title>
<path fill="none" stroke="black" d="M743.86,-1081C680.97,-1081 573.877,-1081 473.854,-1081"/>
<polygon fill="none" stroke="black" points="473.575,-1077.5 463.575,-1081 473.575,-1084.5 473.575,-1077.5"/>
</g>
<!-- \\FIT\\NetopeerBundle\\DependencyInjection\\FITNetopeerExtension -->
<g id="node10" class="node"><title>\\FIT\\NetopeerBundle\\DependencyInjection\\FITNetopeerExtension</title>
<a xlink:href="DependencyInjection.FITNetopeerExtension.html" xlink:title="FITNetopeerExtension" target="_parent">
<polygon fill="none" stroke="black" points="1289,-938 1137,-938 1137,-902 1289,-902 1289,-938"/>
<text text-anchor="middle" x="1213" y="-916.6" font-family="Courier,monospace" font-size="11.00">FITNetopeerExtension</text>
</a>
</g>
<!-- \\Symfony\\Component\\HttpKernel\\DependencyInjection\\Extension -->
<g id="node35" class="node"><title>\\Symfony\\Component\\HttpKernel\\DependencyInjection\\Extension</title>
<ellipse fill="none" stroke="black" cx="799" cy="-234" rx="258.177" ry="18"/>
<text text-anchor="middle" x="799" y="-228.9" font-family="Times,serif" font-size="14.00" fill="gray">\Symfony\Component\HttpKernel\DependencyInjection\Extension</text>
</g>
<!-- \\FIT\\NetopeerBundle\\DependencyInjection\\FITNetopeerExtension&#45;&gt;\\Symfony\\Component\\HttpKernel\\DependencyInjection\\Extension -->
<g id="edge20" class="edge"><title>\\FIT\\NetopeerBundle\\DependencyInjection\\FITNetopeerExtension&#45;&gt;\\Symfony\\Component\\HttpKernel\\DependencyInjection\\Extension</title>
<path fill="none" stroke="black" d="M1136.87,-904.876C1130.08,-901.651 1123.65,-897.741 1118,-893 906.223,-715.186 824.012,-363.675 804.095,-262.098"/>
<polygon fill="none" stroke="black" points="807.531,-261.434 802.211,-252.271 800.656,-262.751 807.531,-261.434"/>
</g>
<!-- \\FIT\\NetopeerBundle\\DependencyInjection\\Configuration -->
<g id="node11" class="node"><title>\\FIT\\NetopeerBundle\\DependencyInjection\\Configuration</title>
<a xlink:href="DependencyInjection.Configuration.html" xlink:title="Configuration" target="_parent">
<polygon fill="none" stroke="black" points="1265,-884 1161,-884 1161,-848 1265,-848 1265,-884"/>
<text text-anchor="middle" x="1213" y="-862.6" font-family="Courier,monospace" font-size="11.00">Configuration</text>
</a>
</g>
<!-- \\Symfony\\Component\\Config\\Definition\\ConfigurationInterface -->
<g id="node47" class="node"><title>\\Symfony\\Component\\Config\\Definition\\ConfigurationInterface</title>
<ellipse fill="none" stroke="black" cx="799" cy="-180" rx="262.077" ry="18"/>
<text text-anchor="middle" x="799" y="-174.9" font-family="Times,serif" font-size="14.00" fill="gray">\\Symfony\\Component\\Config\\Definition\\ConfigurationInterface</text>
</g>
<!-- \\FIT\\NetopeerBundle\\DependencyInjection\\Configuration&#45;&gt;\\Symfony\\Component\\Config\\Definition\\ConfigurationInterface -->
<g id="edge36" class="edge"><title>\\FIT\\NetopeerBundle\\DependencyInjection\\Configuration&#45;&gt;\\Symfony\\Component\\Config\\Definition\\ConfigurationInterface</title>
<path fill="none" stroke="black" stroke-dasharray="1,5" d="M1160.74,-860.793C1144.69,-856.553 1128.51,-849.078 1118,-836 1030.1,-726.606 1160.56,-306.897 1062,-207 1020.42,-164.859 953.987,-158.326 898.291,-162.219"/>
<polygon fill="none" stroke="black" points="897.706,-158.755 888.025,-163.061 898.278,-165.732 897.706,-158.755"/>
</g>
<!-- \\FIT\\NetopeerBundle\\Entity\\MyConnection -->
<g id="node13" class="node"><title>\\FIT\\NetopeerBundle\\Entity\\MyConnection</title>
<a xlink:href="Entity.MyConnection.html" xlink:title="MyConnection" target="_parent">
<polygon fill="none" stroke="black" points="1261,-804 1165,-804 1165,-768 1261,-768 1261,-804"/>
<text text-anchor="middle" x="1213" y="-782.6" font-family="Courier,monospace" font-size="11.00">MyConnection</text>
</a>
</g>
<!-- \\FIT\\NetopeerBundle\\Models\\XMLoperations -->
<g id="node15" class="node"><title>\\FIT\\NetopeerBundle\\Models\\XMLoperations</title>
<a xlink:href="Models.XMLoperations.html" xlink:title="XMLoperations" target="_parent">
<polygon fill="none" stroke="black" points="1265,-724 1161,-724 1161,-688 1265,-688 1265,-724"/>
<text text-anchor="middle" x="1213" y="-702.6" font-family="Courier,monospace" font-size="11.00">XMLoperations</text>
</a>
</g>
<!-- \\FIT\\NetopeerBundle\\Models\\AjaxSharedData -->
<g id="node16" class="node"><title>\\FIT\\NetopeerBundle\\Models\\AjaxSharedData</title>
<a xlink:href="Models.AjaxSharedData.html" xlink:title="AjaxSharedData" target="_parent">
<polygon fill="none" stroke="black" points="1268,-670 1158,-670 1158,-634 1268,-634 1268,-670"/>
<text text-anchor="middle" x="1213" y="-648.6" font-family="Courier,monospace" font-size="11.00">AjaxSharedData</text>
</a>
</g>
<!-- \\FIT\\NetopeerBundle\\Models\\Data -->
<g id="node17" class="node"><title>\\FIT\\NetopeerBundle\\Models\\Data</title>
<a xlink:href="Models.Data.html" xlink:title="Data" target="_parent">
<polygon fill="none" stroke="black" points="1240,-616 1186,-616 1186,-580 1240,-580 1240,-616"/>
<text text-anchor="middle" x="1213" y="-594.6" font-family="Courier,monospace" font-size="11.00">Data</text>
</a>
</g>
<!-- \\FIT\\NetopeerBundle\\Models\\ConnectionSession -->
<g id="node18" class="node"><title>\\FIT\\NetopeerBundle\\Models\\ConnectionSession</title>
<a xlink:href="Models.ConnectionSession.html" xlink:title="ConnectionSession" target="_parent">
<polygon fill="none" stroke="black" points="1277,-562 1149,-562 1149,-526 1277,-526 1277,-562"/>
<text text-anchor="middle" x="1213" y="-540.6" font-family="Courier,monospace" font-size="11.00">ConnectionSession</text>
</a>
</g>
<!-- \\FIT\\NetopeerBundle\\Tests\\Controller\\DefaultControllerTest -->
<g id="node21" class="node"><title>\\FIT\\NetopeerBundle\\Tests\\Controller\\DefaultControllerTest</title>
<a xlink:href="Tests.Controller.DefaultControllerTest.html" xlink:title="DefaultControllerTest" target="_parent">
<polygon fill="none" stroke="black" points="1292,-454 1134,-454 1134,-418 1292,-418 1292,-454"/>
<text text-anchor="middle" x="1213" y="-432.6" font-family="Courier,monospace" font-size="11.00">DefaultControllerTest</text>
</a>
</g>
<!-- \\Symfony\\Bundle\\FrameworkBundle\\Test\\WebTestCase -->
<g id="node37" class="node"><title>\\Symfony\\Bundle\\FrameworkBundle\\Test\\WebTestCase</title>
<ellipse fill="none" stroke="black" cx="799" cy="-126" rx="221.13" ry="18"/>
<text text-anchor="middle" x="799" y="-120.9" font-family="Times,serif" font-size="14.00" fill="gray">\Symfony\Bundle\FrameworkBundle\Test\WebTestCase</text>
</g>
<!-- \\FIT\\NetopeerBundle\\Tests\\Controller\\DefaultControllerTest&#45;&gt;\\Symfony\\Bundle\\FrameworkBundle\\Test\\WebTestCase -->
<g id="edge22" class="edge"><title>\\FIT\\NetopeerBundle\\Tests\\Controller\\DefaultControllerTest&#45;&gt;\\Symfony\\Bundle\\FrameworkBundle\\Test\\WebTestCase</title>
<path fill="none" stroke="black" d="M1143.87,-417.779C1134.12,-412.703 1125.04,-406.235 1118,-398 1045.4,-313.111 1145.66,-227.003 1062,-153 1021.95,-117.577 963.898,-108.8 912.515,-109.754"/>
<polygon fill="none" stroke="black" points="912.221,-106.262 902.334,-110.07 912.438,-113.258 912.221,-106.262"/>
</g>
<!-- \\FIT\\NetopeerBundle\\Twig\\NetopeerTwigExtension -->
<g id="node23" class="node"><title>\\FIT\\NetopeerBundle\\Twig\\NetopeerTwigExtension</title>
<a xlink:href="Twig.NetopeerTwigExtension.html" xlink:title="NetopeerTwigExtension" target="_parent">
<polygon fill="none" stroke="black" points="1292,-366 1134,-366 1134,-330 1292,-330 1292,-366"/>
<text text-anchor="middle" x="1213" y="-344.6" font-family="Courier,monospace" font-size="11.00">NetopeerTwigExtension</text>
</a>
</g>
<!-- \\Twig_Extension -->
<g id="node33" class="node"><title>\\Twig_Extension</title>
<ellipse fill="none" stroke="black" cx="799" cy="-72" rx="74.894" ry="18"/>
<text text-anchor="middle" x="799" y="-66.9" font-family="Times,serif" font-size="14.00" fill="gray">\Twig_Extension</text>
</g>
<!-- \\FIT\\NetopeerBundle\\Twig\\NetopeerTwigExtension&#45;&gt;\\Twig_Extension -->
<g id="edge18" class="edge"><title>\\FIT\\NetopeerBundle\\Twig\\NetopeerTwigExtension&#45;&gt;\\Twig_Extension</title>
<path fill="none" stroke="black" d="M1133.62,-337.135C1127.9,-334.177 1122.58,-330.516 1118,-326 1044,-253.049 1140.42,-167.176 1062,-99 1009.12,-53.0256 925.773,-52.2833 867.108,-59.1745"/>
<polygon fill="none" stroke="black" points="866.662,-55.7029 857.185,-60.4398 867.548,-62.6467 866.662,-55.7029"/>
</g>
<!-- \\FIT\\NetopeerBundle\\FITNetopeerBundle -->
<g id="node24" class="node"><title>\\FIT\\NetopeerBundle\\FITNetopeerBundle</title>
<a xlink:href="FITNetopeerBundle.html" xlink:title="FITNetopeerBundle" target="_parent">
<polygon fill="none" stroke="black" points="1279,-312 1147,-312 1147,-276 1279,-276 1279,-312"/>
<text text-anchor="middle" x="1213" y="-290.6" font-family="Courier,monospace" font-size="11.00">FITNetopeerBundle</text>
</a>
</g>
<!-- \\Symfony\\Component\\HttpKernel\\Bundle\\Bundle -->
<g id="node39" class="node"><title>\\Symfony\\Component\\HttpKernel\\Bundle\\Bundle</title>
<ellipse fill="none" stroke="black" cx="799" cy="-18" rx="195.132" ry="18"/>
<text text-anchor="middle" x="799" y="-12.9" font-family="Times,serif" font-size="14.00" fill="gray">\Symfony\Component\HttpKernel\Bundle\Bundle</text>
</g>
<!-- \\FIT\\NetopeerBundle\\FITNetopeerBundle&#45;&gt;\\Symfony\\Component\\HttpKernel\\Bundle\\Bundle -->
<g id="edge24" class="edge"><title>\\FIT\\NetopeerBundle\\FITNetopeerBundle&#45;&gt;\\Symfony\\Component\\HttpKernel\\Bundle\\Bundle</title>
<path fill="none" stroke="black" d="M1208.14,-275.931C1194.37,-228.599 1150.23,-100.808 1062,-45 1044.42,-33.8797 1024.82,-25.8506 1004.47,-20.1668"/>
<polygon fill="none" stroke="black" points="1005.31,-16.7683 994.747,-17.6398 1003.54,-23.5432 1005.31,-16.7683"/>
</g>
</g>
</svg>
